<svg preserveAspectRatio="none" width="100%" height="100%" overflow="visible" style="display: block;" viewBox="0 0 1440 1049" fill="none" xmlns="http://www.w3.org/2000/svg">
<g id="horizontal line" opacity="0.12">
<rect x="0.5" y="0.5" width="1439" height="648" stroke="var(--stroke-0, #083138)"/>
<line id="Line 4" x1="197" y1="472.5" x2="1242" y2="472.5" stroke="var(--stroke-0, #125F6B)"/>
<line id="Line 10" x1="81" y1="792.5" x2="1358" y2="792.5" stroke="var(--stroke-0, #125F6B)"/>
<line id="Line 6" x1="81" y1="728.5" x2="1358" y2="728.5" stroke="var(--stroke-0, #125F6B)"/>
<line id="Line 11" x1="81" y1="1048.5" x2="1358" y2="1048.5" stroke="var(--stroke-0, #125F6B)"/>
<line id="Line 5" x1="197" y1="408.5" x2="1242" y2="408.5" stroke="var(--stroke-0, #125F6B)"/>
<line id="Line 7" x1="197" y1="664.5" x2="1242" y2="664.5" stroke="var(--stroke-0, #125F6B)"/>
<line id="Line 12" x1="81" y1="984.5" x2="1358" y2="984.5" stroke="var(--stroke-0, #125F6B)"/>
<line id="Line 3" x1="81" y1="344.5" x2="1358" y2="344.5" stroke="var(--stroke-0, #125F6B)"/>
<line id="Line 8" x1="197" y1="600.5" x2="1242" y2="600.5" stroke="var(--stroke-0, #125F6B)"/>
<line id="Line 13" x1="81" y1="920.5" x2="1358" y2="920.5" stroke="var(--stroke-0, #125F6B)"/>
<line id="Line 9" x1="197" y1="536.5" x2="1242" y2="536.5" stroke="var(--stroke-0, #125F6B)"/>
<line id="Line 14" x1="81" y1="856.5" x2="1358" y2="856.5" stroke="var(--stroke-0, #125F6B)"/>
<line id="Line 2" x1="4.37114e-08" y1="248.5" x2="1440" y2="248.5" stroke="var(--stroke-0, #125F6B)"/>
<line id="Line 1" x1="4.37114e-08" y1="80.5001" x2="1440" y2="80.5003" stroke="var(--stroke-0, #125F6B)"/>
<line id="Line " x1="4.37114e-08" y1="0.5" x2="1440" y2="0.500126" stroke="var(--stroke-0, #125F6B)"/>
</g>
</svg>
