<svg width="142" height="36" viewBox="0 0 142 36" fill="none" xmlns="http://www.w3.org/2000/svg">
<path d="M20.0817 7.18182V29H16.5661L6.28551 14.1385H6.1044V29H2.15199V7.18182H5.68892L15.9588 22.054H16.1506V7.18182H20.0817ZM31.4622 29.3196C29.8216 29.3196 28.4047 28.9787 27.2115 28.2969C26.0254 27.608 25.1127 26.6349 24.4735 25.3778C23.8343 24.1136 23.5147 22.6257 23.5147 20.9141C23.5147 19.2308 23.8343 17.7536 24.4735 16.4822C25.1199 15.2038 26.0218 14.2095 27.1795 13.4993C28.3372 12.782 29.6973 12.4233 31.2598 12.4233C32.2683 12.4233 33.22 12.5866 34.1149 12.9134C35.0169 13.233 35.8123 13.7301 36.5012 14.4048C37.1973 15.0795 37.7441 15.9389 38.1419 16.983C38.5396 18.0199 38.7385 19.2557 38.7385 20.6903V21.8729H25.3258V19.2734H35.0417C35.0346 18.5348 34.8748 17.8778 34.5623 17.3026C34.2498 16.7202 33.813 16.2621 33.252 15.9283C32.698 15.5945 32.0517 15.4276 31.313 15.4276C30.5247 15.4276 29.8322 15.6193 29.2356 16.0028C28.639 16.3793 28.1738 16.8764 27.84 17.4943C27.5133 18.1051 27.3464 18.7763 27.3393 19.5078V21.777C27.3393 22.7287 27.5133 23.5455 27.8613 24.2273C28.2093 24.902 28.6958 25.4205 29.3208 25.7827C29.9458 26.1378 30.6774 26.3153 31.5154 26.3153C32.0765 26.3153 32.5843 26.2372 33.0389 26.081C33.4934 25.9176 33.8876 25.6797 34.2214 25.3672C34.5552 25.0547 34.8074 24.6676 34.9778 24.206L38.5787 24.6108C38.3514 25.5625 37.9181 26.3935 37.2789 27.1037C36.6468 27.8068 35.8372 28.3537 34.85 28.7443C33.8627 29.1278 32.7335 29.3196 31.4622 29.3196ZM44.8029 12.6364L48.1055 18.6768L51.4613 12.6364H55.5415L50.609 20.8182L55.6268 29H51.5678L48.1055 23.1087L44.6751 29H40.5842L45.57 20.8182L40.712 12.6364H44.8029ZM66.6957 12.6364V15.6193H57.2887V12.6364H66.6957ZM59.6112 8.71591H63.4677V24.0781C63.4677 24.5966 63.5458 24.9943 63.7021 25.2713C63.8654 25.5412 64.0785 25.7259 64.3413 25.8253C64.604 25.9247 64.8952 25.9744 65.2148 25.9744C65.4563 25.9744 65.6765 25.9567 65.8754 25.9212C66.0813 25.8857 66.2376 25.8537 66.3441 25.8253L66.994 28.8402C66.788 28.9112 66.4933 28.9893 66.1097 29.0746C65.7333 29.1598 65.2717 29.2095 64.7248 29.2237C63.7589 29.2521 62.8888 29.1065 62.1147 28.7869C61.3406 28.4602 60.7262 27.956 60.2717 27.2741C59.8242 26.5923 59.604 25.7401 59.6112 24.7173V8.71591Z" fill="black"/>
<path d="M81.7322 13.4567C81.647 12.5973 81.2813 11.9297 80.6349 11.4538C79.9886 10.978 79.1115 10.7401 78.0036 10.7401C77.2507 10.7401 76.6151 10.8466 76.0966 11.0597C75.5781 11.2656 75.1804 11.5533 74.9034 11.9226C74.6335 12.2919 74.4986 12.7109 74.4986 13.1797C74.4844 13.5703 74.5661 13.9112 74.7436 14.2024C74.9283 14.4936 75.1804 14.7457 75.5 14.9588C75.8196 15.1648 76.1889 15.3459 76.608 15.5021C77.027 15.6513 77.4744 15.7791 77.9503 15.8857L79.9105 16.3544C80.8622 16.5675 81.7358 16.8516 82.5312 17.2067C83.3267 17.5618 84.0156 17.9986 84.598 18.517C85.1804 19.0355 85.6314 19.6463 85.951 20.3494C86.2777 21.0526 86.4446 21.8587 86.4517 22.7678C86.4446 24.103 86.1037 25.2607 85.429 26.2408C84.7614 27.2138 83.7955 27.9702 82.5312 28.5099C81.2741 29.0426 79.7578 29.3089 77.9822 29.3089C76.2209 29.3089 74.6868 29.0391 73.38 28.4993C72.0803 27.9595 71.0646 27.1605 70.3331 26.1023C69.6087 25.0369 69.2287 23.7195 69.1932 22.1499H73.657C73.7067 22.8814 73.9162 23.4922 74.2855 23.9822C74.6619 24.4652 75.1626 24.831 75.7876 25.0795C76.4197 25.321 77.1335 25.4418 77.929 25.4418C78.7102 25.4418 79.3885 25.3281 79.9638 25.1009C80.5462 24.8736 80.9972 24.5575 81.3168 24.1527C81.6364 23.7479 81.7962 23.2827 81.7962 22.7571C81.7962 22.267 81.6506 21.8551 81.3594 21.5213C81.0753 21.1875 80.6563 20.9034 80.1023 20.669C79.5554 20.4347 78.8842 20.2216 78.0888 20.0298L75.7131 19.4332C73.8736 18.9858 72.4212 18.2862 71.3558 17.3345C70.2905 16.3828 69.7614 15.1009 69.7685 13.4886C69.7614 12.1676 70.1129 11.0135 70.8232 10.0263C71.5405 9.03906 72.5241 8.26847 73.7741 7.71449C75.0241 7.16051 76.4446 6.88352 78.0355 6.88352C79.6548 6.88352 81.0682 7.16051 82.2756 7.71449C83.4901 8.26847 84.4347 9.03906 85.1094 10.0263C85.7841 11.0135 86.1321 12.157 86.1534 13.4567H81.7322ZM96.8627 29.3196C95.1866 29.3196 93.7449 28.9645 92.5375 28.2543C91.3372 27.5369 90.4139 26.5426 89.7676 25.2713C89.1284 24 88.8088 22.5369 88.8088 20.8821C88.8088 19.206 89.1319 17.7358 89.7782 16.4716C90.4316 15.2003 91.3585 14.2095 92.5588 13.4993C93.7591 12.782 95.1866 12.4233 96.8414 12.4233C98.269 12.4233 99.519 12.6825 100.591 13.201C101.664 13.7195 102.513 14.4474 103.138 15.3849C103.763 16.3224 104.107 17.4233 104.171 18.6875H99.8883C99.7676 17.8707 99.448 17.2138 98.9295 16.7166C98.4181 16.2124 97.747 15.9602 96.916 15.9602C96.2129 15.9602 95.5985 16.152 95.073 16.5355C94.5545 16.9119 94.1497 17.4624 93.8585 18.1868C93.5673 18.9112 93.4217 19.7884 93.4217 20.8182C93.4217 21.8622 93.5637 22.75 93.8478 23.4815C94.139 24.2131 94.5474 24.7706 95.073 25.1541C95.5985 25.5376 96.2129 25.7294 96.916 25.7294C97.4345 25.7294 97.8997 25.6229 98.3116 25.4098C98.7306 25.1967 99.0751 24.8878 99.345 24.483C99.622 24.071 99.8031 23.5774 99.8883 23.0021H104.171C104.1 24.2521 103.759 25.353 103.148 26.3047C102.545 27.2493 101.71 27.9879 100.645 28.5206C99.5794 29.0533 98.3187 29.3196 96.8627 29.3196ZM111.743 29.3089C110.699 29.3089 109.768 29.1278 108.952 28.7656C108.135 28.3963 107.489 27.853 107.013 27.1357C106.544 26.4112 106.31 25.5092 106.31 24.4297C106.31 23.5206 106.477 22.7571 106.81 22.1392C107.144 21.5213 107.599 21.0241 108.174 20.6477C108.749 20.2713 109.403 19.9872 110.134 19.7955C110.873 19.6037 111.647 19.4688 112.457 19.3906C113.408 19.2912 114.175 19.1989 114.758 19.1136C115.34 19.0213 115.763 18.8864 116.026 18.7088C116.288 18.5312 116.42 18.2685 116.42 17.9205V17.8565C116.42 17.1818 116.207 16.6598 115.781 16.2905C115.362 15.9212 114.765 15.7365 113.991 15.7365C113.174 15.7365 112.524 15.9176 112.041 16.2798C111.558 16.6349 111.239 17.0824 111.082 17.6222L106.885 17.2812C107.098 16.2869 107.517 15.4276 108.142 14.7031C108.767 13.9716 109.573 13.4105 110.56 13.0199C111.555 12.6222 112.705 12.4233 114.012 12.4233C114.921 12.4233 115.791 12.5298 116.622 12.7429C117.46 12.956 118.202 13.2862 118.849 13.7337C119.502 14.1811 120.017 14.7564 120.393 15.4595C120.77 16.1555 120.958 16.9901 120.958 17.9631V29H116.654V26.7308H116.526C116.263 27.2422 115.912 27.6932 115.472 28.0838C115.031 28.4673 114.502 28.7692 113.884 28.9893C113.266 29.2024 112.553 29.3089 111.743 29.3089ZM113.043 26.1768C113.71 26.1768 114.3 26.0455 114.811 25.7827C115.322 25.5128 115.724 25.1506 116.015 24.696C116.306 24.2415 116.452 23.7266 116.452 23.1513V21.4148C116.31 21.5071 116.114 21.5923 115.866 21.6705C115.624 21.7415 115.351 21.8089 115.045 21.8729C114.74 21.9297 114.435 21.983 114.129 22.0327C113.824 22.0753 113.547 22.1143 113.298 22.1499C112.766 22.228 112.3 22.3523 111.903 22.5227C111.505 22.6932 111.196 22.924 110.976 23.2152C110.756 23.4993 110.646 23.8544 110.646 24.2805C110.646 24.8984 110.869 25.3707 111.317 25.6974C111.771 26.017 112.347 26.1768 113.043 26.1768ZM129.017 19.5398V29H124.479V12.6364H128.804V15.5234H128.996C129.358 14.5717 129.966 13.8189 130.818 13.2649C131.67 12.7038 132.703 12.4233 133.918 12.4233C135.054 12.4233 136.045 12.6719 136.89 13.169C137.735 13.6662 138.392 14.3764 138.861 15.2997C139.33 16.2159 139.564 17.3097 139.564 18.581V29H135.026V19.3906C135.033 18.3892 134.777 17.608 134.259 17.0469C133.74 16.4787 133.027 16.1946 132.118 16.1946C131.507 16.1946 130.967 16.326 130.498 16.5888C130.037 16.8516 129.674 17.2351 129.412 17.7393C129.156 18.2365 129.025 18.8366 129.017 19.5398Z" fill="url(#paint0_linear_8_1334)"/>
<defs>
<linearGradient id="paint0_linear_8_1334" x1="142" y1="18" x2="68" y2="18" gradientUnits="userSpaceOnUse">
<stop stop-color="#27C0B4"/>
<stop offset="1" stop-color="#21687E"/>
</linearGradient>
</defs>
</svg>
